<?xml version="1.0" encoding="UTF-8"?>
<svg id="Layer_2" data-name="Layer 2" xmlns="http://www.w3.org/2000/svg" viewBox="0 0 107.45 118.59">
  <defs>
    <style>
      .cls-1 {
        fill: #944e39;
      }

      .cls-2 {
        fill: #fdb053;
      }

      .cls-3 {
        fill: #17435c;
      }

      .cls-4 {
        fill: #f0c6b4;
      }

      .cls-5 {
        fill: #b5a794;
      }

      .cls-6 {
        fill: #fff;
      }

      .cls-7 {
        fill: #e6e1dd;
      }

      .cls-8 {
        fill: #d1d1d1;
      }

      .cls-9 {
        fill: #5f9fad;
      }

      .cls-10, .cls-11, .cls-12 {
        opacity: .5;
      }

      .cls-13 {
        fill: #693121;
      }

      .cls-14 {
        fill: #f4efe9;
      }

      .cls-15 {
        fill: #e2d5c5;
      }

      .cls-16 {
        fill: #8ccccb;
      }

      .cls-17 {
        fill: #991f16;
      }

      .cls-18 {
        fill: #856848;
      }

      .cls-19 {
        fill: #cca7cf;
      }

      .cls-20 {
        fill: #736656;
      }

      .cls-21 {
        fill: #3e6669;
      }

      .cls-22 {
        fill: #211a1a;
      }

      .cls-11 {
        fill: #5c74ad;
      }

      .cls-23 {
        fill: #a39685;
      }

      .cls-24 {
        fill: #ffc654;
      }

      .cls-25 {
        fill: #544540;
      }

      .cls-26, .cls-27, .cls-28 {
        fill: #0a0808;
      }

      .cls-29 {
        fill: #c7a495;
      }

      .cls-30 {
        fill: #c3c270;
      }

      .cls-31 {
        fill: #fa5c52;
      }

      .cls-32 {
        fill: #e3bd5e;
      }

      .cls-33, .cls-27 {
        opacity: .3;
      }

      .cls-34 {
        fill: #eb5c44;
      }

      .cls-35 {
        fill: #ab9d67;
      }

      .cls-36 {
        fill: #cc934c;
      }

      .cls-37 {
        fill: #362c29;
      }

      .cls-38 {
        fill: #6b4414;
      }

      .cls-39 {
        fill: #428aa8;
      }

      .cls-40 {
        fill: #389998;
      }

      .cls-41 {
        fill: #dde65c;
      }

      .cls-42 {
        fill: #275c78;
      }

      .cls-43 {
        fill: #c84030;
      }

      .cls-28, .cls-44 {
        opacity: .1;
      }

      .cls-45 {
        fill: #a39c95;
      }

      .cls-46 {
        fill: #573711;
      }

      .cls-47 {
        fill: #bf261b;
      }

      .cls-48 {
        fill: #8a1c14;
      }

      .cls-49 {
        fill: #fbe979;
      }

      .cls-50 {
        fill: #916b8c;
      }

      .cls-51 {
        fill: #d66b24;
      }

      .cls-52 {
        fill: #5e4439;
      }

      .cls-53 {
        fill: #29617d;
      }

      .cls-54 {
        fill: #7b4a19;
      }

      .cls-55, .cls-12 {
        fill: #685750;
      }

      .cls-56 {
        fill: #701c1d;
      }
    </style>
  </defs>
  <g id="Layer_1-2" data-name="Layer 1">
    <g>
      <g>
        <g>
          <polygon class="cls-33" points="0 112.59 1.89 113.68 72.67 72.81 70.78 71.72 0 112.59"/>
          <polygon class="cls-16" points="0 40.87 1.89 41.96 72.67 1.09 70.78 0 0 40.87"/>
          <polygon class="cls-40" points="0 47.59 1.89 48.69 1.89 41.96 0 40.87 0 47.59"/>
          <polygon class="cls-8" points="0 105.35 1.89 106.44 1.89 48.69 0 47.59 0 105.35"/>
          <polygon class="cls-21" points="1.89 41.96 72.67 1.09 72.67 7.82 1.89 48.69 1.89 41.96"/>
          <polygon class="cls-6" points="72.67 65.58 1.89 106.44 1.89 48.69 72.67 7.82 72.67 65.58"/>
        </g>
        <g>
          <g class="cls-10">
            <polygon class="cls-39" points="65.19 66.1 65.13 66.13 65.13 45.77 65.19 45.73 65.19 66.1"/>
            <polygon class="cls-39" points="62.95 67.39 62.89 67.42 62.89 47.06 62.95 47.03 62.95 67.39"/>
            <polygon class="cls-39" points="60.71 68.69 60.65 68.72 60.65 48.35 60.71 48.32 60.71 68.69"/>
            <polygon class="cls-39" points="58.47 69.98 58.41 70.01 58.41 49.64 58.47 49.61 58.47 69.98"/>
            <polygon class="cls-39" points="56.23 71.27 56.18 71.3 56.18 50.94 56.23 50.91 56.23 71.27"/>
            <polygon class="cls-39" points="53.99 72.57 53.93 72.6 53.94 52.23 53.99 52.2 53.99 72.57"/>
            <polygon class="cls-39" points="51.75 73.86 51.7 73.89 51.7 53.53 51.75 53.49 51.75 73.86"/>
            <polygon class="cls-39" points="49.51 75.15 49.46 75.18 49.46 54.82 49.51 54.79 49.51 75.15"/>
            <polygon class="cls-39" points="47.27 76.45 47.22 76.48 47.22 56.11 47.27 56.08 47.27 76.45"/>
            <polygon class="cls-39" points="45.03 77.74 44.98 77.77 44.98 57.4 45.03 57.37 45.03 77.74"/>
            <polygon class="cls-39" points="42.79 79.03 42.74 79.06 42.74 58.7 42.79 58.66 42.79 79.03"/>
            <polygon class="cls-39" points="40.55 80.32 40.5 80.36 40.5 59.99 40.55 59.96 40.55 80.32"/>
            <polygon class="cls-39" points="38.32 81.62 38.26 81.65 38.26 61.28 38.32 61.25 38.32 81.62"/>
            <polygon class="cls-39" points="36.07 82.91 36.02 82.94 36.02 62.58 36.07 62.55 36.07 82.91"/>
            <polygon class="cls-39" points="33.84 84.2 33.78 84.24 33.78 63.87 33.84 63.84 33.84 84.2"/>
            <polygon class="cls-39" points="67.4 44.51 31.71 65.12 31.71 65.05 67.4 44.44 67.4 44.51"/>
            <polygon class="cls-39" points="67.4 47.1 31.71 67.71 31.71 67.64 67.4 47.03 67.4 47.1"/>
            <polygon class="cls-39" points="67.4 49.68 31.71 70.29 31.71 70.23 67.4 49.62 67.4 49.68"/>
            <polygon class="cls-39" points="67.4 52.27 31.71 72.88 31.71 72.81 67.4 52.2 67.4 52.27"/>
            <polygon class="cls-39" points="67.4 54.85 31.71 75.46 31.71 75.4 67.4 54.79 67.4 54.85"/>
            <polygon class="cls-39" points="67.4 57.44 31.71 78.05 31.71 77.98 67.4 57.37 67.4 57.44"/>
            <polygon class="cls-39" points="67.4 60.03 31.71 80.64 31.71 80.57 67.4 59.96 67.4 60.03"/>
            <polygon class="cls-39" points="67.4 62.61 31.71 83.22 31.71 83.16 67.4 62.55 67.4 62.61"/>
          </g>
          <g>
            <polygon class="cls-51" points="38.7 79.65 37.66 79.06 38.06 78 39.05 78.54 38.7 79.65"/>
            <polygon class="cls-51" points="43.32 76.04 42.28 75.44 42.68 74.38 43.67 74.92 43.32 76.04"/>
            <polygon class="cls-51" points="47.72 75 46.68 74.41 47.08 73.35 48.07 73.88 47.72 75"/>
            <polygon class="cls-51" points="59.95 64.96 58.91 64.36 59.32 63.3 60.3 63.84 59.95 64.96"/>
            <polygon class="cls-51" points="66.09 57.61 65.06 57.01 65.46 55.96 66.45 56.49 66.09 57.61"/>
            <polygon class="cls-51" points="66.57 53.84 65.55 54.42 64.83 55.67 64.83 56.14 64.2 56.57 63.59 56.23 62.78 56.7 62.2 57.7 62.2 58.65 62.25 58.67 60.26 61.87 60.08 61.77 59.27 62.24 58.7 63.23 56.29 63.95 55.34 63.37 54.52 63.84 53.95 64.84 53.95 65.46 48.22 72.02 47.85 71.81 47.03 72.28 46.57 73.09 44.03 73.61 45.29 73.95 43.44 72.85 42.63 73.32 42.05 74.32 42.05 74.62 39.37 76.78 38.83 76.46 38.01 76.93 37.43 77.94 37.43 77.97 31.73 80.36 31.67 80.91 32.93 81.68 39.33 78.86 40.61 77.84 43.63 75.46 45.15 74.67 47.9 74.17 49.55 73.05 55.46 66.28 57.1 65.12 60.27 64.14 60.96 63.54 61.58 62.84 63.89 59.21 65.26 57.78 66.3 57.05 66.57 56.67 68.54 55.02 66.57 53.84"/>
            <polygon class="cls-2" points="65.43 57.34 64.85 57.01 64.04 57.47 63.46 58.48 63.46 59.42 64.04 59.75 64.85 59.28 65.43 58.28 65.43 57.34"/>
            <polygon class="cls-2" points="61.92 62.88 61.34 62.54 60.53 63.01 59.95 64.01 59.95 64.96 60.53 65.29 61.34 64.82 61.92 63.82 61.92 62.88"/>
            <polygon class="cls-2" points="57.18 64.48 56.6 64.14 55.79 64.61 55.21 65.61 55.21 66.56 55.79 66.89 56.6 66.42 57.18 65.42 57.18 64.48"/>
            <polygon class="cls-2" points="49.69 72.92 49.11 72.59 48.29 73.06 47.72 74.06 47.72 75 48.29 75.34 49.11 74.87 49.69 73.87 49.69 72.92"/>
            <polygon class="cls-2" points="45.29 73.95 44.7 73.62 43.89 74.09 43.32 75.09 43.32 76.04 43.89 76.37 44.7 75.9 45.29 74.9 45.29 73.95"/>
            <polygon class="cls-2" points="40.66 77.57 40.09 77.24 39.27 77.71 38.7 78.71 38.7 79.65 39.27 79.99 40.09 79.52 40.66 78.52 40.66 77.57"/>
            <polygon class="cls-2" points="68.54 55.02 67.83 54.61 66.81 55.19 66.09 56.44 66.09 57.61 66.81 58.03 67.83 57.44 68.54 56.2 68.54 55.02"/>
            <polygon class="cls-2" points="48.75 74.21 44.31 75.13 39.67 78.86 32.93 81.68 32.72 81.25 39.66 78.34 44.34 74.58 48.71 73.68 56.17 65.13 60.83 63.74 64.31 58.15 67.3 56.08 67.34 56.56 64.5 58.54 60.96 64.24 56.22 65.65 48.75 74.21"/>
          </g>
          <g>
            <polygon class="cls-48" points="43.92 69.45 42.88 68.85 43.28 67.8 44.27 68.33 43.92 69.45"/>
            <polygon class="cls-48" points="66.57 45.67 65.55 46.26 64.83 47.51 64.83 48.26 63.03 49.93 62.58 49.67 61.77 50.14 61.19 51.14 61.19 52.08 61.26 52.12 60.06 54.01 59.87 53.9 59.05 54.37 58.47 55.38 58.47 55.91 49.3 64.61 48.84 64.35 48.02 64.82 47.44 65.82 47.44 65.84 44.97 66.8 44.05 66.26 43.23 66.73 42.65 67.73 42.65 68.07 31.66 76.69 31.74 77.15 32.85 78.05 33.78 77.09 43.38 69.52 44.14 68.98 44.05 68.54 45.29 67.94 45.81 68.01 48.88 66.77 50.61 65.67 60.05 56.64 61.52 54.9 62.77 52.82 64.26 51 66.25 49.21 67.83 46.45 66.57 45.67"/>
            <polygon class="cls-48" points="48.71 67.54 47 66.55 48.07 65.88 49.06 66.42 48.71 67.54"/>
            <polygon class="cls-34" points="45.89 67.37 45.31 67.03 44.49 67.51 43.92 68.5 43.92 69.45 44.49 69.79 45.31 69.31 45.89 68.31 45.89 67.37"/>
            <polygon class="cls-34" points="50.67 65.45 50.1 65.12 49.29 65.59 48.71 66.59 48.71 67.54 49.29 67.87 50.1 67.4 50.67 66.4 50.67 65.45"/>
            <polygon class="cls-34" points="61.71 55.01 61.13 54.68 60.31 55.15 59.73 56.15 59.73 57.1 60.31 57.43 61.13 56.95 61.71 55.96 61.71 55.01"/>
            <polygon class="cls-34" points="64.42 50.78 63.84 50.44 63.03 50.92 62.45 51.92 62.45 52.86 63.03 53.2 63.84 52.72 64.42 51.72 64.42 50.78"/>
            <polygon class="cls-34" points="68.54 46.87 67.83 46.45 66.81 47.04 66.09 48.28 66.09 49.46 66.81 49.87 67.83 49.28 68.54 48.04 68.54 46.87"/>
            <polygon class="cls-34" points="32.85 78.05 32.93 77.46 44.87 68.11 49.66 66.25 60.71 55.75 63.35 51.58 67.25 47.95 67.38 48.37 63.57 51.92 60.94 56.09 60.89 56.12 49.7 66.76 44.87 68.63 32.85 78.05"/>
          </g>
          <g>
            <polygon class="cls-42" points="32.75 66 32.97 65.39 31.71 64.61 31.27 64.87 31.27 86.16 32.53 86.94 33.03 86.47 68.04 66.21 68.84 65.47 67.58 64.69 32.71 84.83 32.75 66"/>
            <polygon class="cls-39" points="32.97 86.18 32.97 65.39 32.53 65.64 32.53 86.94 68.84 65.97 68.84 65.47 32.97 86.18"/>
          </g>
        </g>
        <g>
          <g>
            <polygon class="cls-51" points="8.64 64.63 8.64 57.23 11.89 56.91 10.16 65.51 8.64 64.63"/>
            <polygon class="cls-9" points="14.52 62.71 16.26 61.71 18.9 62.59 16.24 64.12 14.52 62.71"/>
            <polygon class="cls-50" points="8.64 57.23 13.17 49.39 19.58 45.69 21.1 46.56 14.52 52.37 10.16 58.11 8.64 57.23"/>
            <polygon class="cls-48" points="16.26 61.71 18.23 60.57 20.86 56.02 20.86 50.72 19.23 48.94 21.1 46.56 24.11 48.31 24.11 55.7 19.58 63.55 17.78 62.59 16.26 61.71"/>
            <polygon class="cls-2" points="10.16 65.51 10.16 58.11 13.41 57.79 13.41 62.08 10.16 65.51"/>
            <polygon class="cls-41" points="14.69 68.12 10.16 65.51 13.41 62.08 16.04 63.59 14.69 68.12"/>
            <polygon class="cls-16" points="16.04 63.59 17.78 62.59 17.78 66.34 14.69 68.12 16.04 63.59"/>
            <polygon class="cls-19" points="10.16 58.11 14.69 50.26 21.1 46.56 19.75 51.1 16.04 53.24 13.41 57.79 10.16 58.11"/>
            <polygon class="cls-34" points="17.78 62.59 19.75 61.45 22.38 56.9 22.38 52.61 19.75 51.1 21.1 46.56 25.63 49.18 25.63 56.57 21.1 64.42 17.78 66.34 17.78 62.59"/>
          </g>
          <g>
            <path class="cls-48" d="M21.1,71.81l-5.47,4.61-3.74,5.75v6.64l2.63-.84,1.75-1.01,3.44,.92-9.55,2.89-1.52-.88v-7.4l4.53-7.85,6.41-3.71,1.52,.88Z"/>
            <polygon class="cls-51" points="16.26 86.96 18.23 85.82 20.85 81.28 20.85 76.98 18.23 75.46 21.1 71.81 24.12 73.55 24.12 80.95 19.58 88.81 17.78 87.83 16.26 86.96"/>
            <path class="cls-34" d="M19.75,76.34l-3.71,2.14-2.63,4.56v4.29l2.63,1.51,1.75-1.01v3.76l-3.09,1.79-4.54-2.61v-7.4l4.53-7.85,6.41-3.7-1.35,4.54Z"/>
            <polygon class="cls-2" points="17.78 87.83 19.75 86.7 22.37 82.15 22.37 77.86 19.75 76.34 21.1 71.81 25.64 74.42 25.64 81.83 21.1 89.68 17.78 91.59 17.78 87.83"/>
          </g>
        </g>
        <g>
          <polygon class="cls-9" points="68.73 18.68 32.49 58.05 31.21 57.31 31.21 38.87 67.45 17.94 68.73 18.68"/>
          <polygon class="cls-16" points="68.73 37.13 32.49 58.05 32.49 39.61 68.73 18.68 68.73 37.13"/>
          <polygon class="cls-48" points="32.49 58.05 45.08 41.64 49.62 39.67 55.89 30.14 61.47 29.76 68.73 18.68 70.01 19.42 64.89 39.9 47.45 48.56 33.77 58.79 32.49 58.05"/>
          <polygon class="cls-34" points="33.77 58.79 46.36 42.38 50.9 40.41 57.17 30.88 62.75 30.5 70.01 19.42 70.01 23.46 67.96 36.31 33.77 58.79"/>
          <g>
            <polygon class="cls-50" points="33.77 58.79 39.99 48.58 50.4 45.05 61.52 33.63 66.14 32.09 70.01 23.46 71.29 24.2 68.52 37.26 53.17 46.87 35.05 59.53 33.77 58.79"/>
            <polygon class="cls-19" points="35.05 59.53 41.27 49.32 51.68 45.79 62.8 34.37 67.42 32.83 71.29 24.2 71.29 29.46 71.29 38.61 35.05 59.53"/>
          </g>
          <g>
            <polygon class="cls-48" points="36.28 42.06 34.09 43.32 33.88 43.93 33.88 44.64 34.09 45.03 35.37 45.77 36.9 44.42 37.55 42.8 36.28 42.06"/>
            <polygon class="cls-34" points="37.55 42.8 35.37 44.06 35.16 44.67 35.16 45.38 35.37 45.77 37.55 44.5 37.75 43.89 37.75 43.18 37.55 42.8"/>
          </g>
          <g>
            <polygon class="cls-50" points="36.28 39.16 34.09 40.42 33.88 41.04 33.88 41.75 34.09 42.13 35.37 42.87 36.98 41.29 37.55 39.9 36.28 39.16"/>
            <polygon class="cls-19" points="37.55 39.9 35.37 41.16 35.16 41.78 35.16 42.48 35.37 42.87 37.55 41.61 37.75 40.99 37.75 40.28 37.55 39.9"/>
          </g>
        </g>
      </g>
      <g>
        <polygon class="cls-33" points="36.91 112.47 32.52 109.93 26.3 109.93 21.9 112.47 21.9 116.06 26.3 118.59 32.52 118.59 36.91 116.06 36.91 112.47"/>
        <g>
          <polygon class="cls-31" points="31.79 103.75 32.48 104.14 33.87 104.49 35.24 103.03 34.55 102.65 31.79 103.75"/>
          <polygon class="cls-47" points="30.71 109.97 31.4 110.36 32.58 107.77 32.48 104.14 31.79 103.75 30.71 109.97"/>
          <polygon class="cls-17" points="34.02 111.13 34.71 111.52 33.56 111.62 32.43 110.29 31.74 109.9 34.02 111.13"/>
          <polygon class="cls-43" points="35.24 103.03 32.48 104.14 31.4 110.36 32.43 110.29 34.71 111.52 36.37 106.1 35.24 103.03"/>
        </g>
        <g>
          <polygon class="cls-31" points="26.76 103.77 26.08 104.17 24.7 104.54 23.31 103.1 23.99 102.7 26.76 103.77"/>
          <polygon class="cls-47" points="27.91 109.98 27.23 110.38 26.02 107.81 26.08 104.17 26.76 103.77 27.91 109.98"/>
          <polygon class="cls-17" points="24.67 111.18 23.99 111.58 25.08 111.67 26.2 110.33 26.88 109.93 24.67 111.18"/>
          <polygon class="cls-43" points="23.31 103.1 26.08 104.17 27.23 110.38 26.2 110.33 23.99 111.58 22.2 106.18 23.31 103.1"/>
        </g>
        <g>
          <path class="cls-5" d="M31.04,107.04l2.5-1.46v-2.05s-2.53-1.44-2.53-1.44l-3.56,.02-2.5,1.47v2.05s2.53,1.44,2.53,1.44l3.56-.02Z"/>
          <polygon class="cls-23" points="27.49 107.07 24.97 105.62 26.71 113.03 28.23 113.9 28.2 108.09 27.49 107.07"/>
          <polygon class="cls-20" points="31.04 107.04 27.49 107.07 28.23 113.9 30.37 113.88 31.33 107.25 31.04 107.04"/>
          <polygon class="cls-52" points="33.55 105.58 31.04 107.04 30.37 113.88 31.88 113 33.55 105.58"/>
        </g>
        <path class="cls-5" d="M30.84,82.38l2.44-1.43v-2s-2.47-1.4-2.47-1.4l-3.46,.02-2.44,1.42v2s2.46,1.4,2.46,1.4l3.46-.02Z"/>
        <g>
          <polygon class="cls-45" points="33.27 78.96 35.08 83.81 35.09 86.65 33.47 86.89 31.56 79.99 33.27 78.96"/>
          <polygon class="cls-14" points="24.92 79 23.22 83.87 23.24 86.71 24.87 86.94 26.64 80.01 24.92 79"/>
          <polygon class="cls-8" points="29.91 84.34 29.75 87.54 30.69 85.44 29.44 88.68 29.81 100.71 29.9 101.13 30.76 103.1 30.85 105.5 31.05 107.04 33.55 105.58 35.12 98.67 35.09 86.65 33.29 80.95 30.84 81.61 29.91 84.34"/>
          <polygon class="cls-7" points="31.63 88.67 31.65 100.7 31.04 107.04 27.49 107.07 26.43 104.36 26.22 101.48 25.98 101.3 26.26 98.65 25.95 88.26 26.03 84.92 25.59 87.97 26.49 83.96 27.38 81.29 30.84 82.38 31.63 88.67"/>
          <polygon class="cls-14" points="26.75 100.73 27.49 107.07 24.97 105.62 23.26 98.74 25.25 97.95 26.75 100.73"/>
          <polygon class="cls-6" points="23.26 98.74 24.28 89.5 23.24 86.71 24.93 81 27.27 81.29 27.38 82.4 26.72 88.7 26.75 100.73 23.26 98.74"/>
        </g>
        <g>
          <polygon class="cls-16" points="26.75 100.73 23.26 98.74 23.24 86.71 26.72 88.7 27.69 97.61 26.75 100.73"/>
          <polygon class="cls-40" points="26.75 100.73 31.66 100.7 32.67 97.73 31.63 88.67 26.72 88.7 26.75 100.73"/>
          <polygon class="cls-21" points="31.66 100.7 35.12 98.68 35.09 86.65 31.63 88.67 31.66 100.7"/>
        </g>
        <g>
          <polygon class="cls-43" points="29.06 71.33 27.01 78.09 27.38 82.4 30.84 82.38 30.82 77.55 29.06 71.33"/>
          <polygon class="cls-56" points="29.06 71.33 30.88 77.77 33.29 80.95 33.27 78.96 29.06 71.33"/>
          <polygon class="cls-17" points="29.06 71.33 30.84 82.38 33.29 80.95 29.06 71.33"/>
          <polygon class="cls-43" points="29.06 71.33 26.63 78.11 24.93 81 24.92 79 29.06 71.33"/>
          <polygon class="cls-31" points="29.05 71.34 27.38 82.4 24.93 81 29.05 71.34"/>
        </g>
        <g>
          <polygon class="cls-3" points="23.81 92.27 24.98 92.83 25.6 93.88 25.97 94.65 25.96 95.87 25.21 96.53 23.68 95.74 22.81 94.03 22.83 92.74 23.81 92.27"/>
          <polygon class="cls-49" points="24.8 96.24 23.75 95.63 24.31 95.33 25.48 96 24.99 96.29 24.8 96.24"/>
          <polygon class="cls-24" points="23.41 95.1 23.02 94.21 23.56 93.89 24.31 95.33 23.84 95.6 23.41 95.1"/>
          <polygon class="cls-36" points="23.02 94.21 22.83 92.61 23.55 92.21 23.56 93.89 23.02 94.21"/>
          <g>
            <polygon class="cls-11" points="25.16 96.16 25.36 96.03 24.22 95.38 23.4 93.99 23.4 92.67 23.19 92.79 23.2 94.11 24.01 95.5 25.16 96.16"/>
            <polygon class="cls-12" points="25.96 95.92 25.16 96.16 24.01 95.5 23.2 94.11 23.19 92.79 23.81 92.22 25.14 92.97 25.95 94.37 25.96 95.92"/>
          </g>
          <path class="cls-32" d="M25.12,92.73l-1.45-.83-1.02,.6v1.67s1.04,1.77,1.04,1.77l1.45,.83,1.02-.6v-1.68s-1.04-1.77-1.04-1.77Zm.67,3.05l-.81,.47-1.14-.65-.82-1.39v-1.32s.8-.47,.8-.47l1.15,.65,.81,1.39v1.32Z"/>
          <polygon class="cls-49" points="25.12 92.73 23.66 91.91 24.2 91.59 25.66 92.41 25.31 92.76 25.12 92.73"/>
          <polygon class="cls-24" points="26.15 94.5 25.12 92.73 25.66 92.41 26.69 94.19 26.34 94.59 26.15 94.5"/>
          <polygon class="cls-36" points="26.16 96.18 26.15 94.5 26.69 94.19 26.7 95.86 26.16 96.18"/>
        </g>
        <g>
          <polygon class="cls-17" points="34.79 116.96 34.12 117.36 34.51 113.54 36.47 113.53 34.79 116.96"/>
          <polygon class="cls-47" points="36.47 113.53 35.79 113.93 34.05 109.56 35.33 109.17 36.47 113.53"/>
          <polygon class="cls-31" points="35.33 109.17 34.65 109.56 32.88 109.31 31.87 107.47 32.55 107.08 35.33 109.17"/>
          <polygon class="cls-43" points="34.64 109.56 31.87 107.47 31.33 113 31.82 113.53 34.12 117.36 35.79 113.93 34.64 109.56"/>
        </g>
        <g>
          <polygon class="cls-17" points="23.96 117.02 24.64 117.41 24.15 113.6 22.18 113.6 23.96 117.02"/>
          <polygon class="cls-47" points="22.18 113.6 22.87 114 24.57 109.61 23.28 109.23 22.18 113.6"/>
          <polygon class="cls-31" points="23.28 109.23 23.97 109.62 25.74 109.35 26.72 107.5 26.04 107.11 23.28 109.23"/>
          <polygon class="cls-43" points="23.97 109.62 26.72 107.5 27.32 113.03 26.84 113.56 24.64 117.41 22.87 114 23.97 109.62"/>
        </g>
      </g>
      <g>
        <polygon class="cls-4" points="85.97 53.87 86.63 55.34 87.96 55.45 91.21 56.6 91.08 57.95 86.68 57.72 84.99 56.65 84.05 55.01 84.64 53.97 85.97 53.87"/>
        <polygon class="cls-33" points="73.93 79.13 71.99 80.46 72.12 82.1 74.25 83.09 83.61 82.33 85.55 81 85.42 79.35 83.29 78.36 73.93 79.13"/>
        <polygon class="cls-26" points="80.76 78.51 84.05 79.76 85.16 80.39 85.16 80.6 84.89 81.15 83.19 80.72 81.85 79.79 80.63 79.44 79.85 78.83 79.85 78.62 80.76 78.51"/>
        <polygon class="cls-26" points="74.89 80.43 73.53 80.77 73.53 80.99 73.64 82.49 74.89 82.73 75.57 81.96 75.8 80.37 76.25 79.46 76.25 79.25 74.89 80.43"/>
        <polygon class="cls-38" points="82.75 78.05 83.57 78.74 84.9 79.53 85.16 80.39 84.89 80.94 83.19 80.51 81.85 79.58 80.63 79.23 79.85 78.62 80.08 77.34 82.75 78.05"/>
        <polygon class="cls-38" points="74.76 78.25 74.43 79.29 73.53 80.77 73.64 82.28 74.89 82.52 75.57 81.75 75.8 80.16 76.25 79.25 76.25 78.36 74.76 78.25"/>
        <polygon class="cls-37" points="76.04 60.13 75.67 60.79 75.14 66.11 75.3 70.66 74.84 72.68 74.65 78.15 75.5 79 77.08 78.15 77.99 71.58 79.33 64.77 79.44 64.77 80.13 70.52 79.76 71.79 79.82 77.59 80.49 78.15 82.75 78.05 82.56 76.59 82.79 71.37 83.57 65.39 83.57 60.71 83.27 60.37 76.04 60.13"/>
        <polygon class="cls-22" points="80.29 61.35 79.51 61.35 79.33 64.77 80.11 64.4 80.29 61.35"/>
        <polygon class="cls-26" points="79.44 64.77 81.69 65.26 79.49 65.17 79.44 64.77"/>
        <polygon class="cls-6" points="82.93 49.5 84.3 49.63 85.07 50.61 86.08 53.7 85.37 54.79 83.69 55.06 82.23 51.53 82.93 49.5"/>
        <polygon class="cls-8" points="83.77 51.36 84.51 54.93 83.97 55.02 83.71 54.81 83.45 52.16 83.77 51.36"/>
        <polygon class="cls-29" points="78.41 48.48 78.38 48.94 78.13 50 78.6 51.89 81.14 52.08 81.47 50.33 80.54 48.07 78.83 48.07 78.41 48.48"/>
        <polygon class="cls-13" points="76.2 59.46 76.04 60.13 77.53 61.24 80.55 61.58 82.63 61.06 83.27 60.37 83.22 59.74 76.2 59.46"/>
        <polygon class="cls-6" points="74.84 50.68 77.76 49.62 78.37 50.11 78.67 50.85 79.58 50.94 79.87 51.55 80.35 51.73 80.73 51.41 80.82 50.79 81.73 49.34 82.93 49.5 83.77 51.36 84.05 54.61 83.36 58.21 83.63 59.35 82.54 60.38 80.59 60.79 77.76 60.54 76.04 59.35 76.44 58.02 75.39 55.24 74.84 50.68"/>
        <polygon class="cls-8" points="76.04 53.79 75.62 55.83 75.37 55.27 75.3 54.42 76.04 53.79"/>
        <polygon class="cls-33" points="80.82 50.79 80.73 51.41 81.72 51.52 81.57 50.44 80.82 50.79"/>
        <polygon class="cls-33" points="79.58 50.94 79.89 51.59 78.87 52.02 77.84 50.68 77.76 49.62 78.47 50.52 79.58 50.94"/>
        <polygon class="cls-43" points="80.69 51.2 80.82 50.79 81.07 50.61 81.27 50.85 80.59 51.61 80.43 51.52 80.69 51.2"/>
        <polygon class="cls-6" points="80.82 50.22 80.82 50.79 81.61 51.41 81.45 50.46 80.82 50.22"/>
        <g>
          <polygon class="cls-43" points="80.22 51.86 80.43 55.18 79.99 63.15 80.81 64.3 81.47 63.03 81.07 55.15 80.54 51.82 80.37 51.61 80.22 51.86"/>
          <polygon class="cls-43" points="79.58 50.94 79.85 51.32 80.14 51.41 80.13 51.73 79.12 51.25 79.3 51.02 79.58 50.94"/>
          <polygon class="cls-31" points="79.85 51.32 80.69 51.2 80.54 51.82 80.22 51.86 79.85 51.32"/>
        </g>
        <polygon class="cls-45" points="72.11 55.56 73.06 56.98 74.72 56.72 74.84 55.4 73.02 54.79 72.11 55.56"/>
        <polygon class="cls-4" points="72.37 55.48 71.36 57.35 66.31 57.2 66.01 58.54 69.88 59.35 71.84 59.35 72.96 58.6 74.47 56.48 74.39 55.48 73.15 54.92 72.37 55.48"/>
        <polygon class="cls-6" points="75.5 50.79 74.84 50.68 73.66 52.01 72.11 55.56 73.52 55.58 74.72 56.72 76.04 53.79 76.04 52.18 75.5 50.79"/>
        <polygon class="cls-4" points="82.63 46.49 82.7 47.48 82.45 47.74 82.57 48.15 82.13 50.46 81.21 50.85 79.13 49.59 79 48.92 78.61 48.78 78.41 48.48 78.17 48.11 77.84 47.11 79.29 45.65 81.57 45.51 82.63 46.49"/>
        <polygon class="cls-55" points="78.19 47.63 78.61 47.26 79.17 47.83 79.32 48.51 79.56 48.67 79.56 47.67 80.28 47.19 80.41 46.61 80.97 47.04 82.1 47.07 82.93 46.43 82.46 45.06 80.88 43.88 79.3 43.97 78.76 44.46 78.06 44.6 77.48 45.97 77.59 47.34 78.15 48.56 78.41 48.48 78.19 47.63"/>
        <polygon class="cls-25" points="78.83 44.6 80.15 46.2 79.28 44.68 78.83 44.6"/>
        <polygon class="cls-4" points="66.31 57.2 65.34 56.25 64.1 56.37 64.15 56.72 63.65 56.8 62.53 56.62 62.39 57.1 63.67 58.69 65.71 58.69 66.01 58.54 66.65 57.9 66.31 57.2"/>
        <polygon class="cls-6" points="78.38 48.94 78.47 49.88 79.58 50.94 78.9 51.84 77.99 50.52 77.76 49.62 78.38 48.94"/>
        <polygon class="cls-26" points="79.33 64.77 77.48 65.43 79.26 65.12 79.33 64.77"/>
        <polygon class="cls-4" points="91.21 56.6 92.31 55.85 93.48 56.02 93.19 56.34 93.89 56.6 94.81 56.52 94.81 56.94 93.37 58.34 92.29 58.34 91.08 57.95 90.66 56.84 91.21 56.6"/>
      </g>
      <g>
        <polygon class="cls-4" points="70.45 85.39 71.21 86.5 70.62 86.88 68.83 88.91 68.71 89.89 69.28 90.35 72.26 88.69 72.99 87.65 73.48 86.62 72.69 84.49 71.1 84.44 70.45 85.39"/>
        <polygon class="cls-29" points="71.21 86.5 71.94 87.12 71.58 87.12 71.21 86.5"/>
        <polygon class="cls-14" points="70.34 79.97 69.36 80.09 68.71 80.73 68.78 82.37 70.18 85.45 71.21 85.62 72.39 85.02 72.83 84.25 71.79 81.21 71.21 80.35 70.34 79.97"/>
        <polygon class="cls-33" points="58.96 112.37 58.96 109.25 62.78 107.04 68.19 107.04 72.01 109.25 72.01 112.37 68.19 114.57 62.78 114.57 58.96 112.37"/>
        <polygon class="cls-15" points="70.22 110.11 70.22 110.29 69.88 110.81 69.04 110.81 68.54 109.89 68.43 109.27 67.64 108.34 67.47 107.46 67.47 107.29 68.79 108.56 70.22 110.11"/>
        <polygon class="cls-18" points="70.12 108.8 70.22 110.11 69.88 110.63 69.04 110.63 68.54 109.72 68.43 109.09 67.64 108.17 67.47 107.29 67.63 107.02 68.16 106.89 70.12 108.8"/>
        <polygon class="cls-35" points="69.88 93.26 69.88 100.59 70.59 102.59 70.59 108.41 69.99 109.26 68.78 109.23 68.05 108.35 67.37 101.69 66.06 97.38 66.06 94.59 69.88 93.26"/>
        <polygon class="cls-15" points="63.62 112.72 60.12 112.39 60.12 112.58 60.97 113.25 63.78 113.32 64.07 113.52 65.29 113.67 65.91 113.33 65.91 113.14 63.62 112.72"/>
        <polygon class="cls-18" points="63.1 110.92 61.68 111.35 60.21 111.35 60.12 112.39 60.97 113.06 63.78 113.13 64.07 113.33 65.29 113.48 65.91 113.14 65.91 111.5 63.1 110.92"/>
        <polygon class="cls-30" points="69 89.38 70.1 93.14 69.55 94.21 66.81 95.93 65.73 102.81 66.11 104.86 66.14 111.35 65.16 111.96 63.71 111.96 62.84 110.89 62.24 102.05 62.24 91.37 62.84 89.76 69 89.38"/>
        <polygon class="cls-26" points="68.64 88.4 69 89.38 68.39 90.06 65.8 91.22 63.08 91.22 62.46 90.65 62.41 89.17 68.64 88.4"/>
        <polygon class="cls-6" points="68.87 80.29 70.24 80.29 71.11 81.62 71.21 83.24 70.29 85.84 69.17 87.6 69.17 88.18 68.13 89.36 65.74 90.35 63.12 90.35 62.45 89.8 62.13 88.91 62.45 85.89 62.45 84.38 62.87 83.53 63.53 82.62 65.08 81.62 68.87 80.29"/>
        <polygon class="cls-4" points="65.36 79.68 65.66 81 66.29 81.17 67.96 80.65 68.36 79.84 68.22 78.79 67.46 77.92 65.36 78.52 65.36 79.68"/>
        <polygon class="cls-4" points="60.46 81.36 58.51 80.5 57.67 79.68 54.11 77.68 53.23 76.06 51.59 74.54 51.45 74.87 52.33 76.06 51.71 76.14 51.32 77.28 51.63 77.64 51.92 77.66 52.98 78.56 53.3 78.6 56.2 81.77 57.22 82.33 58.9 83.37 60.31 83.18 60.9 82.3 60.46 81.36"/>
        <polygon class="cls-4" points="64.9 75.05 64.39 75.41 63.98 76.19 63.98 76.89 64.12 77.31 63.98 77.76 64.29 79.21 64.75 79.68 65.36 79.68 65.98 79.03 66.58 77.2 66.31 74.88 64.9 75.05"/>
        <polygon class="cls-37" points="65.47 76.03 65.47 75.51 64.9 75.05 65.32 74.43 66.46 74.32 67.58 74.77 68.52 75.55 68.91 76.3 69 77.49 68.59 78.39 67.99 79.04 67.15 79.38 66.41 79.33 65.98 79.03 65.71 78.48 65.2 77.82 64.98 77.82 64.87 78.2 64.56 78.06 64.56 77.24 64.45 76.48 65.06 76.31 65.47 76.03"/>
        <polygon class="cls-14" points="64.32 84.7 63.79 85.7 62.75 86.17 58.91 83.65 58.89 82.51 59.52 81.53 60.66 81.33 63.32 82.99 64.1 83.75 64.32 84.7"/>
        <polygon class="cls-14" points="68.87 80.29 67.95 81.25 66.41 81.56 65.08 81.62 65.08 80.54 66.21 80.68 67.76 80.29 68.56 79.68 68.87 80.29"/>
      </g>
      <g>
        <path class="cls-33" d="M76.95,106.58l3.3,1.91h4.68l3.31-1.91v-2.7l-3.31-1.91h-4.68l-3.3,1.91v2.7Z"/>
        <polygon class="cls-26" points="84.49 102.04 84.76 102.04 85.63 102.59 85.58 103.42 84.63 104.68 84.05 105.38 83.26 105.46 83.11 104.82 83.16 104.21 84.49 102.04"/>
        <polygon class="cls-4" points="82.97 94.97 82.97 95.81 82.6 98.04 83.27 102.73 83.16 104.21 83.29 104.83 83.87 104.88 84.58 104.18 85.04 103.25 84.96 102.64 84.49 102.3 84.49 101.14 85.04 98.15 84.86 94.62 83.88 93.86 82.97 94.97"/>
        <polygon class="cls-26" points="81.97 107.22 82.02 107.78 81.15 107.87 79.23 105.94 79.18 105.26 79.84 104.66 80.51 104.68 81.97 107.22"/>
        <polygon class="cls-4" points="79.5 95.84 79.75 97.31 80 100.35 80.51 104.68 80.31 104.7 79.87 105.03 79.76 105.65 80.55 106.67 81.16 107.23 81.97 107.22 81.93 106.26 81.91 104.9 82.46 100.04 81.94 97.84 82.08 95.41 80.84 94.62 79.93 94.7 79.5 95.84"/>
        <polygon class="cls-45" points="85.81 86.94 86.05 89.69 85.24 94.92 84.67 95.69 82.03 97.3 80.44 97.53 79.56 96.58 78.33 90.44 78.33 87.4 79.7 84.94 84.16 84.94 85.81 86.94"/>
        <polygon class="cls-4" points="80.06 74.44 80.19 74.57 80.83 75.64 82.7 75.92 83.42 75.46 83.51 74.11 81.92 73.41 79.96 73.5 80.06 74.44"/>
        <polygon class="cls-29" points="80.06 74.44 80.57 73.89 80.5 74.28 80.06 74.44"/>
        <polygon class="cls-3" points="85.43 76.37 86.33 76.53 87.49 78.28 87.72 78.98 89.82 82.34 89.41 83.14 88.39 83.29 85.06 82.52 84.89 82.13 85.21 80.85 86.65 80.98 85.89 79.98 84.89 79.03 85.43 76.37"/>
        <polygon class="cls-27" points="86.65 80.98 88.17 82.75 87.3 82.13 86.65 80.98"/>
        <polygon class="cls-40" points="77.18 85.23 76.47 84.77 77.46 83.72 78.05 84.22 77.82 84.84 77.48 85.04 77.18 85.23"/>
        <polygon class="cls-3" points="78.01 79.89 75.68 82.21 77.57 83.51 77.65 84.24 77.13 84.86 76.37 84.94 72.95 83.04 72.95 82.23 75.95 78.71 76.21 78.17 77.72 76.53 78.44 76.54 78.8 78.28 78.01 79.89"/>
        <polygon class="cls-53" points="80.24 76.16 78.44 76.54 78.01 77.58 78.01 79.89 79.1 83.23 78.33 84.77 78.2 87.32 79.12 87.94 81.62 88.24 82.03 86.04 82.51 88.24 85.21 87.78 85.88 86.85 85.51 84.41 84.72 82.93 85.89 79.98 86.05 77.5 85.43 76.37 84.15 76.03 80.24 76.16"/>
        <polygon class="cls-40" points="83.24 75.1 82.18 75.46 81.03 75.22 80.19 74.57 80.47 75.32 80.24 76.16 80.8 76.55 82.28 76.71 83.24 76.39 83.24 75.1"/>
        <polygon class="cls-4" points="79.34 70.26 78.93 70.94 78.8 71.7 78.93 71.96 78.8 72.37 79.18 73.82 79.58 74.44 80.06 74.44 80.57 73.89 81.3 73.05 80.82 71.37 80.76 70.37 79.34 70.26"/>
        <polygon class="cls-1" points="84 71.16 83.8 70.33 82.93 69.49 81.13 69.13 80.04 69.52 79.34 70.26 79.1 71.05 79.3 71.99 79.31 72.66 79.77 72.53 80.43 73.13 80.57 73.89 81.55 74.63 83.07 74.79 84 73.36 84 71.16"/>
        <polygon class="cls-13" points="82.81 72.26 82.93 72.87 82.7 74.75 83.64 72.39 82.81 72.26"/>
        <polygon class="cls-32" points="84.31 71.79 84.18 71.28 83.83 71.05 83.27 71.05 82.71 71.61 82.77 72.32 83.29 72.53 84.31 71.79"/>
        <polygon class="cls-1" points="83.1 72.03 83.47 71.53 84.13 71.46 84.97 72.27 85.54 73.3 85.67 74.82 84.69 76.75 84.38 77.96 83.17 76.99 82.63 75.09 83.08 72.86 83.1 72.03"/>
        <polygon class="cls-4" points="78.43 84.43 78.87 84.54 78.93 85.61 78.25 86.46 78.21 87.1 77.72 86.56 77.72 85.32 78.15 84.37 78.43 84.43"/>
        <polygon class="cls-40" points="78.05 84.22 78.21 84.37 78.21 84.84 77.84 85.31 77.29 85.31 77.18 85.23 78.05 84.22"/>
        <polygon class="cls-29" points="80.51 104.68 80.34 105.78 80.25 105.31 80.51 104.68"/>
        <polygon class="cls-29" points="84.49 102.3 84.58 103.63 84.76 103.21 84.49 102.3"/>
        <polygon class="cls-3" points="84.15 83.23 83.18 83.76 80.38 83.87 83.24 84.12 84.15 83.23"/>
        <polygon class="cls-44" points="84.37 90.21 79.73 89.98 83.82 90.72 84.37 90.21"/>
      </g>
      <g>
        <g>
          <g>
            <polygon class="cls-46" points="92.92 63.02 89.85 64.79 92.69 70.09 95.76 68.32 93.11 62.96 92.92 63.02"/>
            <polygon class="cls-54" points="89.85 64.79 92.5 70.16 92.69 70.09 90.04 64.73 89.85 64.79"/>
          </g>
          <g>
            <polygon class="cls-45" points="90.4 64.47 89.85 64.79 89.85 64.77 90.05 64.37 90.27 64.32 90.4 64.47"/>
            <polygon class="cls-6" points="90.05 64.34 93.13 62.59 93.72 62.96 93.94 64.03 94.49 65.34 95.88 67.98 92.79 69.77 92.74 69.64 91.41 67.11 90.87 65.82 90.66 64.74 90.08 64.38 90.05 64.34"/>
            <g>
              <polygon class="cls-8" points="94.69 66.18 92 67.74 91.87 67.49 94.56 65.94 94.69 66.18"/>
              <polygon class="cls-8" points="94.5 65.81 91.8 67.36 91.67 67.12 94.37 65.56 94.5 65.81"/>
              <polygon class="cls-8" points="92.5 66.15 93.74 65.44 93.84 65.69 92.62 66.39 92.5 66.15"/>
              <polygon class="cls-8" points="95.49 67.7 92.8 69.25 92.67 69 95.36 67.45 95.49 67.7"/>
              <polygon class="cls-8" points="95.29 67.32 92.6 68.87 92.47 68.63 95.16 67.07 95.29 67.32"/>
              <polygon class="cls-8" points="94.13 65.03 91.44 66.59 91.33 66.33 94.03 64.77 94.13 65.03"/>
              <polygon class="cls-8" points="93.41 62.98 90.72 64.54 90.46 64.37 93.14 62.82 93.41 62.98"/>
              <polygon class="cls-8" points="91.19 65.92 93.4 64.64 93.51 64.9 91.32 66.16 91.19 65.92"/>
              <polygon class="cls-8" points="95.56 67.83 95.7 68.09 93 69.64 92.87 69.38 95.56 67.83"/>
              <polygon class="cls-8" points="93.76 64.13 93.8 64.24 91.11 65.79 91.07 65.69 91.03 65.52 93.72 63.96 93.76 64.13"/>
            </g>
            <polygon class="cls-28" points="93.72 62.96 93.94 64.03 90.89 65.8 90.86 65.76 90.67 64.79 90.67 64.72 93.72 62.96"/>
            <polygon class="cls-8" points="92.79 69.77 92.82 69.75 91.43 67.11 90.89 65.8 90.67 64.72 90.05 64.34 89.83 64.78 89.85 64.79 90.07 64.39 90.63 64.74 90.85 65.81 91.4 67.12 92.79 69.77"/>
          </g>
        </g>
        <polygon class="cls-33" points="91.33 93.24 91.33 90.11 95.16 87.89 100.58 87.89 104.41 90.11 104.41 93.23 100.58 95.45 95.16 95.45 91.33 93.24"/>
        <polygon class="cls-4" points="104.25 65.73 104.86 66.19 103.76 67.77 102.2 69.55 101.4 69.18 100.72 69.02 100.66 69.8 101.07 70.98 101.71 71.26 102.63 71.26 103.09 70.61 106.61 67.91 107.25 66.66 107.45 65.43 105.95 63.77 104.15 63.91 104.25 65.73"/>
        <polygon class="cls-29" points="101.71 71.26 102.09 71.06 101.78 70.67 101.17 70.44 101.71 71.26"/>
        <polygon class="cls-29" points="104.86 66.19 106.35 66.61 105.6 66.65 104.86 66.19"/>
        <polygon class="cls-29" points="102.19 69.54 101.78 70.1 101.78 69.82 102.19 69.54"/>
        <polygon class="cls-14" points="101.83 60.76 100.92 61.13 101.62 63.25 103.99 65.81 105.04 65.48 105.86 64.55 105.96 63.67 103.75 61.18 102.85 60.73 101.83 60.76"/>
        <polygon class="cls-26" points="102.62 90.98 102.62 91.15 102.28 91.67 101.44 91.67 100.93 90.75 100.82 90.12 100.03 89.19 99.87 88.32 99.87 88.15 101.18 89.42 102.62 90.98"/>
        <polygon class="cls-55" points="102.52 89.66 102.62 90.98 102.28 91.5 101.44 91.5 100.93 90.58 100.82 89.95 100.03 89.02 99.87 88.15 100.02 87.87 100.55 87.75 102.52 89.66"/>
        <polygon class="cls-26" points="102.28 74.08 102.28 81.42 102.99 83.43 102.99 89.26 102.39 90.12 101.18 90.08 100.44 89.21 99.76 82.53 98.44 78.21 98.44 75.41 102.28 74.08"/>
        <polygon class="cls-26" points="96 93.59 92.49 93.26 92.49 93.45 93.34 94.12 96.16 94.19 96.45 94.39 97.68 94.55 98.3 94.2 98.3 94.01 96 93.59"/>
        <polygon class="cls-55" points="95.48 91.78 94.05 92.22 92.58 92.22 92.49 93.26 93.34 93.93 96.16 94 96.45 94.2 97.68 94.35 98.3 94.01 98.3 92.36 95.48 91.78"/>
        <polygon class="cls-37" points="101.4 70.18 102.5 73.96 101.95 75.03 99.2 76.75 98.12 83.65 98.5 85.71 98.53 92.22 97.54 92.82 96.09 92.82 95.21 91.75 94.62 82.88 94.62 72.18 95.21 70.57 101.4 70.18"/>
        <polygon class="cls-26" points="101.19 69.24 101.4 70.18 100.78 70.87 98.09 71.85 95.21 71.44 95.59 69.92 101.19 69.24"/>
        <polygon class="cls-6" points="101.18 61.18 102.32 61.38 103.34 62.62 103.53 64.14 102.6 66.75 101.47 68.52 101.47 69.09 100.43 70.27 98.05 71.06 95.64 70.73 94.74 67.54 94.74 65.28 95.17 64.43 95.82 63.51 97.37 62.51 101.18 61.18"/>
        <polygon class="cls-4" points="93.06 67.29 92.8 66.75 92.34 66.49 91.75 66.8 90.94 66.89 90.4 67.07 90.45 67.42 90.83 67.51 90.58 67.85 90.9 68.35 91.73 68.85 92.5 68.63 92.87 67.94 93.06 67.29"/>
        <polygon class="cls-4" points="94.55 68.5 94.45 68.85 93.06 67.29 92.47 67.38 92.34 68.27 93.52 70.89 94.31 72.04 96.03 72.04 96.63 70.83 97.13 69.14 96.59 68.18 95.4 67.95 94.55 68.5"/>
        <polygon class="cls-29" points="92.34 68.27 92.46 67.42 92.66 67.25 92.41 67.38 92.23 68.04 92.34 68.27"/>
        <polygon class="cls-4" points="97.7 60.57 97.82 60.92 97.82 61.68 98.6 61.9 100.11 61.59 100.74 61.06 100.69 60.71 100.67 59.56 100.22 59.13 98.17 59 97.45 59.42 97.7 60.57"/>
        <polygon class="cls-4" points="97.23 55.92 96.72 56.28 96.31 57.07 96.31 57.77 96.45 58.19 96.31 58.64 96.62 60.09 97.08 60.57 97.7 60.57 98.32 59.91 98.92 58.08 98.65 55.76 97.23 55.92"/>
        <polygon class="cls-45" points="97.81 56.9 97.81 56.38 97.23 55.92 97.66 55.3 98.79 55.19 99.92 55.65 100.86 56.43 101.26 57.18 101.34 58.37 100.93 59.27 100.33 59.93 99.49 60.27 98.74 60.21 98.32 59.91 98.04 59.37 97.54 58.7 97.32 58.7 97.21 59.08 96.89 58.94 96.89 58.12 96.78 57.36 97.4 57.19 97.81 56.9"/>
        <polygon class="cls-14" points="96.33 63.69 97.31 64.06 97.87 65.67 97.27 69.11 96.2 69.4 95.01 69.06 94.45 68.38 94.96 65.09 95.46 64.22 96.33 63.69"/>
        <polygon class="cls-14" points="101.18 61.18 100.25 62.14 98.71 62.45 97.37 62.51 97.37 61.42 98.52 61.57 100.07 61.18 100.87 60.57 101.18 61.18"/>
        <polygon class="cls-29" points="94.45 68.85 94.29 70.83 94.16 69.92 94.45 68.85"/>
      </g>
    </g>
  </g>
</svg>