<?xml version="1.0" encoding="UTF-8"?>
<svg xmlns="http://www.w3.org/2000/svg" xmlns:xlink="http://www.w3.org/1999/xlink" viewBox="0 0 1830 1822.41">
  <defs>
    <style>
      .cls-1 {
        fill: #f9efe4;
      }

      .cls-2 {
        fill: url(#linear-gradient-2);
      }

      .cls-3, .cls-4, .cls-5 {
        fill: #fff;
      }

      .cls-6 {
        fill: url(#linear-gradient-17);
      }

      .cls-7 {
        fill: url(#linear-gradient-15);
      }

      .cls-8 {
        fill: url(#linear-gradient-18);
      }

      .cls-9 {
        fill: url(#linear-gradient-14);
      }

      .cls-10 {
        isolation: isolate;
      }

      .cls-11 {
        fill: url(#linear-gradient-8);
      }

      .cls-11, .cls-12, .cls-13 {
        mix-blend-mode: multiply;
      }

      .cls-11, .cls-12, .cls-13, .cls-14 {
        opacity: .3;
      }

      .cls-15 {
        fill: url(#linear-gradient-11);
      }

      .cls-16 {
        fill: url(#linear-gradient-10);
      }

      .cls-4, .cls-5, .cls-17, .cls-14 {
        mix-blend-mode: soft-light;
      }

      .cls-18 {
        fill: url(#linear-gradient-16);
      }

      .cls-12 {
        fill: url(#linear-gradient-4);
      }

      .cls-5 {
        opacity: .4;
      }

      .cls-19 {
        fill: url(#linear-gradient-5);
      }

      .cls-13 {
        fill: url(#linear-gradient-6);
      }

      .cls-17 {
        opacity: .5;
      }

      .cls-17, .cls-14 {
        fill: #f4f7fa;
      }

      .cls-20 {
        fill: url(#linear-gradient-7);
      }

      .cls-21 {
        fill: url(#linear-gradient-9);
      }

      .cls-22 {
        fill: url(#linear-gradient-3);
      }

      .cls-23 {
        fill: url(#linear-gradient);
      }

      .cls-24 {
        fill: url(#linear-gradient-19);
      }

      .cls-25 {
        fill: url(#linear-gradient-12);
      }

      .cls-26 {
        fill: url(#linear-gradient-13);
      }
    </style>
    <linearGradient id="linear-gradient" x1="1.83" y1="934.75" x2="1825.94" y2="934.75" gradientUnits="userSpaceOnUse">
      <stop offset="0" stop-color="#e4d6ca"/>
      <stop offset="1" stop-color="#d4bdac"/>
    </linearGradient>
    <linearGradient id="linear-gradient-2" x1="480.97" y1="468.67" x2="781.26" y2="468.67" gradientUnits="userSpaceOnUse">
      <stop offset="0" stop-color="#f6af9a"/>
      <stop offset="1" stop-color="#f89f8a"/>
    </linearGradient>
    <linearGradient id="linear-gradient-3" x1="1422.18" y1="143.66" x2="1062.13" y2="562.69" gradientUnits="userSpaceOnUse">
      <stop offset="0" stop-color="#ef9f8e"/>
      <stop offset="1" stop-color="#e68273"/>
    </linearGradient>
    <linearGradient id="linear-gradient-4" x1="1422.16" y1="143.64" x2="1062.1" y2="562.66" xlink:href="#linear-gradient-3"/>
    <linearGradient id="linear-gradient-5" x1="1155.08" y1="286.4" x2="916.08" y2="1164.81" xlink:href="#linear-gradient-2"/>
    <linearGradient id="linear-gradient-6" x1="1208.38" y1="300.9" x2="969.37" y2="1179.31" xlink:href="#linear-gradient-2"/>
    <linearGradient id="linear-gradient-7" x1="955.28" y1="631.97" x2="1004.94" y2="1839.4" xlink:href="#linear-gradient-2"/>
    <linearGradient id="linear-gradient-8" x1="882.76" y1="634.96" x2="932.42" y2="1842.38" xlink:href="#linear-gradient-2"/>
    <linearGradient id="linear-gradient-9" x1="367.71" y1="1624.17" x2="1236.52" y2="1624.17" gradientUnits="userSpaceOnUse">
      <stop offset="0" stop-color="#d3c5cb"/>
      <stop offset="1" stop-color="#ada0a6"/>
    </linearGradient>
    <linearGradient id="linear-gradient-10" x1="1538.36" y1="1524.41" x2="1921.55" y2="1435.89" gradientTransform="translate(2101.32) rotate(-180) scale(1 -1)" gradientUnits="userSpaceOnUse">
      <stop offset="0" stop-color="#5d535a"/>
      <stop offset="1" stop-color="#464143"/>
    </linearGradient>
    <linearGradient id="linear-gradient-11" x1="1548.95" y1="1525.54" x2="1923.77" y2="1438.94" gradientTransform="translate(2101.32) rotate(-180) scale(1 -1)" gradientUnits="userSpaceOnUse">
      <stop offset="0" stop-color="#96888e"/>
      <stop offset="1" stop-color="#706369"/>
    </linearGradient>
    <linearGradient id="linear-gradient-12" x1="295.98" y1="1279.91" x2="421.87" y2="1618.7" xlink:href="#linear-gradient-9"/>
    <linearGradient id="linear-gradient-13" x1="124.09" y1="638.33" x2="241.37" y2="638.33" gradientTransform="translate(1396.68 0) rotate(-180) scale(1 -1) skewX(8.44)" xlink:href="#linear-gradient-10"/>
    <linearGradient id="linear-gradient-14" x1="198.73" y1="1049.63" x2="118.31" y2="1616.79" gradientTransform="translate(1396.68 0) rotate(-180) scale(1 -1) skewX(8.44)" xlink:href="#linear-gradient-11"/>
    <linearGradient id="linear-gradient-15" x1="544.84" y1="1072.14" x2="460.09" y2="1669.88" gradientTransform="translate(1396.68 0) rotate(-180) scale(1 -1) skewX(8.44)" xlink:href="#linear-gradient-11"/>
    <linearGradient id="linear-gradient-16" x1="1271.31" y1="669.65" x2="1411.08" y2="601.04" xlink:href="#linear-gradient-10"/>
    <linearGradient id="linear-gradient-17" x1="489.77" y1="1127.67" x2="1378.95" y2="1801.85" gradientTransform="matrix(1, 0, 0, 1, 0, 0)" xlink:href="#linear-gradient-10"/>
    <linearGradient id="linear-gradient-18" x1="785.58" y1="1333.25" x2="809.47" y2="1418.19" gradientTransform="matrix(1, 0, 0, 1, 0, 0)" xlink:href="#linear-gradient-10"/>
    <linearGradient id="linear-gradient-19" x1="-13.24" y1="1048.74" x2="11.78" y2="1048.74" gradientTransform="translate(1033.68 -381.02) rotate(-168.45) scale(1 -1)" gradientUnits="userSpaceOnUse">
      <stop offset="0" stop-color="#3b3138"/>
      <stop offset="1" stop-color="#241f21"/>
    </linearGradient>
  </defs>
  <g class="cls-10">
    <g id="Background">
      <g>
        <path class="cls-1" d="M1390.08,109.53c61.46,87.99-10.6,230.63,80.59,296.81,88.78,64.41,197.83-41.17,281.5,14.28,124.11,82.25,101.45,458.63-80.01,692.48-54.57,70.33-100.17,97.69-120.36,177.23-43.36,170.78,109.04,272.38,80.04,356.84-65.3,190.19-1069.6,349.78-1472.57-221.8C-28.94,1158.41-57.1,772.93,111.06,480.16,414.91-48.88,1252.17-87.89,1390.08,109.53Z"/>
        <path class="cls-23" d="M387.71,1223.85c-.42,0-.84-.02-1.27-.07-5.67-.61-10.25-5.16-11.12-11.08l-70.58-480.79-72.95,347.49c-1.2,5.72-5.9,9.9-11.6,10.32-5.75,.43-11.08-3.04-13.25-8.54l-64.24-162.97-37.59,75.07c-2.27,4.54-6.93,7.33-12.03,7.19l-77.5-2.14c-7.59-.21-13.75-6.55-13.75-14.15s6.16-13.58,13.75-13.35l69.17,2.14,47.28-94.06c2.34-4.66,7.18-7.33,12.42-6.94,5.21,.43,9.82,3.93,11.79,8.93l58.94,150.06,79.15-375.72c1.3-6.17,6.65-10.17,12.88-9.54,6.15,.64,11.29,5.74,12.22,12.12l73.3,500.91,82.31-232.69c1.78-5.02,6.35-8.22,11.45-8.02,5.1,.2,9.65,3.76,11.41,8.9l37.86,110.27,45.62-112.76c1.82-4.51,5.95-7.37,10.57-7.33,4.57,.04,8.88,2.97,10.94,7.49l29.73,65.34,146.49,4.54,32.98-80.97c1.81-4.44,5.98-7.2,10.3-6.93,4.44,.23,8.43,3.37,10.16,7.98l48.13,128.29,62.5-331.06c1.05-5.58,5.46-9.29,10.54-8.92,.06,0,.12,0,.18,.01,5.15,.47,9.51,4.99,10.4,10.79l69.2,449.27,62.08-212.57c1.35-4.62,5.04-7.71,9.3-7.77,4.27-.02,8.18,2.9,9.91,7.45l39.74,105.02,39.29-101.96c1.48-3.83,4.63-6.35,8.24-6.61,3.61-.25,7.11,1.8,9.17,5.37l32.88,57,113.8,3.52,31.67-70.72c1.7-3.81,5.15-5.91,8.74-5.71,3.63,.31,6.86,3.11,8.32,7.18l40.86,114.42,53.34-306.36c.91-5.23,4.71-8.9,9.18-8.27,4.4,.43,8.11,4.64,8.84,10.01l55.46,412.32,35.27-137.36c1.17-4.56,4.6-7.58,8.47-7.46l199.58,6.18c4.6,.14,8.33,5.05,8.33,10.96s-3.73,10.6-8.33,10.47l-193.09-5.33-44.38,173.36c-1.26,4.89-5.1,8.12-9.21,7.73-4.15-.37-7.56-4.21-8.25-9.29l-53.92-399.8-49.02,282.39c-.83,4.81-4.13,8.36-8.16,8.79-4.05,.41-7.88-2.36-9.51-6.91l-44.91-125.4-25.03,56.06c-1.65,3.71-4.91,5.97-8.45,5.87l-124.77-3.44c-3.26-.09-6.31-2.06-8.17-5.27l-25.83-44.64-41.11,107c-1.63,4.24-5.26,6.92-9.28,6.85-4.02-.07-7.67-2.9-9.3-7.21l-38.47-101.35-66.42,228.15c-1.52,5.22-5.92,8.61-10.75,8.19-4.81-.41-8.77-4.49-9.61-9.93l-67.17-434.82-57.86,307.42c-.98,5.23-4.89,9.08-9.65,9.52-4.75,.47-9.29-2.65-11.17-7.64l-52.05-138.3-25.35,62.44c-1.8,4.44-5.83,7.22-10.28,7.1l-161.08-4.44c-4.45-.12-8.53-2.96-10.53-7.33l-21.7-47.54-47.13,116.89c-1.93,4.8-6.42,7.84-11.35,7.58-4.93-.22-9.29-3.63-11-8.61l-37.15-107.86-87.07,247c-1.82,5.18-6.52,8.55-11.7,8.55Z"/>
        <g>
          <path class="cls-2" d="M480.97,746.86s69.84-79.15,74.49-288.66-32.59-237.45,27.94-256.07c60.53-18.62,111.74-18.62,125.71,27.94,13.97,46.56,4.66,279.35,65.18,386.44,60.53,107.08-293.32,130.36-293.32,130.36Z"/>
          <path class="cls-22" d="M969.84,784.1s-148.99-69.84-218.83-158.3c-69.84-88.46-93.12-414.37,148.99-474.9,242.1-60.53,288.66,176.92,293.32,242.1,4.66,65.18-102.43,93.12-102.43,93.12l111.74,55.87s172.27,65.18,130.36,335.22c-41.9,270.04-363.16-93.12-363.16-93.12Z"/>
          <path class="cls-12" d="M1239.88,644.43c-30.32-15.82-45.12-3.14-93.12-23.28-81.99-34.4-97.65-96.11-186.23-209.51-97.75-125.15-142.28-131.45-139.68-176.92,1.55-27.11,18.94-51.38,44.72-72.73-205.2,81.58-180.9,379.8-114.56,463.82,69.84,88.46,218.83,158.3,218.83,158.3,0,0,287.74,325.22,354.08,131.08,2.37-180.87-39.11-247.32-84.04-270.76Z"/>
          <path class="cls-19" d="M792.92,704.95s46.56-311.94,316.6-367.81c270.04-55.87,260.73-18.62,270.04,23.28,9.31,41.9-32.59,65.18-130.36,83.81-97.77,18.62-251.42,144.33-116.4,409.72l-339.88-148.99Z"/>
          <path class="cls-13" d="M1352.22,315.17c-12.51,19.03-27.93,37.69-47.16,54.56-92.51,81.16-190.38,49.75-274.7,102.43-53.33,33.32-110.61,106.15-126.25,281.54l228.68,100.24c-135.02-265.38,18.62-391.09,116.4-409.72,97.77-18.62,139.68-41.9,130.36-83.81-4.12-18.56-4.61-36.2-27.33-45.25Z"/>
          <path class="cls-20" d="M620.65,583.9c-135.21,50.73-202,212.95-209.51,335.22-13.16,214.11,151.52,369.68,223.48,437.65,94.64,89.4,199.46,140.21,237.45,158.3,78.92,37.58,87.86,28.66,237.45,88.46,147.85,59.1,164.56,77.98,204.86,69.84,103.68-20.95,152.67-178.21,176.92-256.07,50.57-162.35,85.43-460.31-74.49-586.64-39.31-31.06-83.03-45.92-139.68-65.18-143.43-48.77-174.51-8.17-274.7-51.21-111.97-48.1-111.07-115.1-218.83-139.68-17.73-4.04-88.92-18.46-162.96,9.31Z"/>
          <path class="cls-11" d="M1114.17,1398.68c-82.84-101.17-77.51-160.37-176.92-237.45-168.79-130.87-321.09-66.33-391.09-186.23-44.62-76.44-36.56-194.87,18.62-251.42,45.21-46.33,101.8-30.35,130.36-74.49,14.52-22.44,15.72-51.02,9.21-81.59-25.34,1.01-54.29,5.37-83.71,16.41-135.21,50.73-202,212.95-209.51,335.22-13.16,214.11,151.52,369.68,223.48,437.65,94.64,89.4,199.46,140.21,237.45,158.3,78.92,37.58,87.86,28.66,237.45,88.46,147.85,59.1,164.56,77.98,204.86,69.84,38.14-7.71,68.86-33.89,93.69-67.76-147.42-59.4-236.82-137.25-293.89-206.94Z"/>
          <path class="cls-4" d="M1395.63,1402.43c29.2-78.31,36.87-165.83,19.19-249.12-8.91-41.37-22.15-81.94-41.01-120.12l-7.13-14.28c-2.36-4.77-5.21-9.3-7.79-13.96-2.67-4.62-5.25-9.29-8-13.86l-8.8-13.4c-3.01-4.41-5.72-9.04-9.09-13.21l-9.8-12.73c-6.27-8.7-13.77-16.42-20.86-24.47-6.88-8.25-15.11-15.25-22.78-22.77-7.52-7.72-16.33-13.98-24.61-20.84-8.26-6.9-17.14-13.04-26.22-18.81-9.01-5.89-18.39-11.18-27.85-16.27-18.99-10.06-38.71-18.54-58.76-25.53-20.03-6.99-40.28-12.78-60.17-18.37-19.89-5.58-39.6-10.76-57.7-18.18-18.04-7.41-34.49-17.02-45.89-31.55-11.41-14.41-18.51-32.96-20.51-52.24-.49-4.09-.73-8.23-.83-12.39-4.82-3.09-9.36-6.21-13.68-9.35-1.01,7.49-1.51,15.1-1.33,22.81,.66,21.9,6.49,44.46,19.8,63.42,6.57,9.46,14.85,17.75,23.92,24.57,9.06,6.88,18.89,12.29,28.79,16.87,19.87,9.12,40.03,15.51,59.75,21.79,.31,.1,.63,.2,.94,.29h-.62c1.31,42.41,10.46,85.09,29.08,123.42,9.38,19.07,20.8,37.24,34.33,53.49,13.39,16.4,28.74,30.53,43.12,44.45,14.31,13.94,27.58,28.12,36.13,45.22,8.82,16.92,13.57,36.1,14,55.61,.26,9.76-.42,19.59-1.78,29.39-1.62,9.75-3.55,19.52-6.47,29.07-5.51,19.19-13.33,37.82-22.43,55.81l4.09,2.22c10.23-17.64,19.27-36.09,26.09-55.54,3.57-9.67,6.18-19.7,8.45-29.84,2.03-10.2,3.36-20.59,3.68-31.11,.74-21.03-3.16-42.53-11.99-62.13-8.55-19.89-22.61-36.59-36.41-51.66-13.91-15.08-27.68-29.35-39.08-45.11-11.55-15.63-20.86-32.6-28.4-50.36-13.52-32.49-19.64-67.56-19.88-102.7,27.79,9.37,54.62,19.93,79.86,33.58,17.44,9.55,34.26,20.22,49.7,32.71,7.67,6.29,15.88,11.96,22.86,19.08,7.12,6.93,14.81,13.29,21.23,20.94,6.61,7.44,13.65,14.52,19.54,22.61l9.22,11.8c3.19,3.84,5.68,8.22,8.62,12.26l8.51,12.37c2.67,4.24,5.17,8.58,7.77,12.87,2.52,4.34,5.3,8.52,7.61,12.98l7,13.35,3.51,6.67,3.16,6.85,6.32,13.72c2.04,4.6,3.82,9.33,5.75,13.98,1.9,4.67,3.91,9.3,5.54,14.08,7.24,18.85,13.02,38.27,17.98,57.85,19.77,78.16,16.97,161.8-4.55,240.91l8.87,2.84Z"/>
          <path class="cls-4" d="M893.54,709.31c5.33-11.11,8.23-23.04,9.44-34.8,.96-9.5,.76-18.94-.3-28.19-5-4.75-9.88-9.43-14.76-14.02-.08,2.71-.11,5.45-.24,8.14-.65,10.72-1.61,21.23-3.63,31.33-3.94,20.1-11.93,38.84-26.4,51.7-14.2,12.99-34.31,18.47-55.35,21.12-21.13,2.83-43.43,3.42-66,6.61-22.49,3.08-45.73,9.33-65.85,22.01-10.01,6.28-19.18,13.91-27.01,22.68-7.84,8.76-14.37,18.52-19.73,28.74-5.37,10.22-9.72,20.88-12.86,31.81-3.4,10.86-5.59,21.97-7.52,33.05-3.4,22.25-4.28,44.63-3.63,66.84l4.66,.07c1.47-21.97,4.08-43.81,8.83-65.03,2.53-10.56,5.29-21.05,9.14-31.08,3.66-10.1,8.12-19.83,13.5-28.92,10.65-18.23,25.39-33.57,43.25-43.84,17.83-10.42,38.47-15.15,59.66-17.74,4.23-.51,8.51-.88,12.79-1.23,5.91,15.85,8.52,32.94,6.75,49.82-.98,9.81-3.42,19.51-7.01,29.13-3.55,9.65-8.27,19.15-12.79,29.35-4.47,10.05-8.81,21.64-8.4,34.22,.16,12.56,6.17,24.25,13.98,32.76,7.87,8.65,17.33,15.02,27.07,20.29,9.78,5.24,19.96,9.41,30.26,13.03l1.7-4.33c-9.81-4.37-19.37-9.24-28.26-14.97-8.84-5.72-17.07-12.43-23.16-20.37-6.07-7.89-9.72-17.17-9.05-26.44,.45-9.23,4.44-18.34,9.51-27.57,5-9.24,10.74-18.73,15.54-29.07,4.84-10.31,8.7-21.48,10.82-33.1,3.39-18.01,2.52-36.68-1.71-54.5,9.23-.56,18.55-1.18,28.02-2.25,11.36-1.44,22.98-3.44,34.43-7.41,11.4-3.96,22.71-9.84,32.06-18.25,9.41-8.27,16.94-18.5,22.25-29.6Z"/>
        </g>
        <g>
          <path class="cls-21" d="M1055.16,1775.81c-72.16,0-157.25-11.83-238.66-35.75-111.36-32.72-187.46-92.08-254.6-144.46-65.44-51.05-121.95-95.13-194.2-100.93l1.78-22.14c78.88,6.33,137.82,52.32,206.08,105.56,65.58,51.15,139.9,109.13,247.2,140.66,172.27,50.61,345.1,41.68,384.55-.11,6.84-7.25,8.57-14.7,5.44-23.46-15.25-42.67-106.76-41.94-195.27-41.25-43.21,.34-87.89,.7-127.45-3.57-37.71-4.07-63.99-18.72-78.11-43.55-27.46-48.29,3.12-116.33,4.44-119.2l20.2,9.25-10.1-4.62,10.1,4.61c-.27,.6-27.17,60.67-5.3,99.03,10.4,18.24,30.97,29.14,61.15,32.39,38.29,4.13,82.31,3.78,124.9,3.45,100.71-.8,195.81-1.55,216.37,55.99,6,16.79,2.47,32.76-10.2,46.19-26.28,27.84-89.6,41.92-168.31,41.92Z"/>
          <g>
            <path class="cls-16" d="M166.86,1461.5c-20.89,112.65,53.84,214.67,169.21,228.14,118.01,13.78,233.31-69.94,255.07-187.29,21.76-117.35-59-219.95-177.89-228.97-116.23-8.82-225.5,75.48-246.39,188.13Z"/>
            <path class="cls-15" d="M165.01,1463.72c-20.42,111.71,52.64,212.88,165.44,226.24,115.38,13.67,228.11-69.36,249.39-185.74,21.27-116.37-57.68-218.12-173.92-227.07-113.65-8.75-220.48,74.86-240.9,186.56Z"/>
            <path class="cls-25" d="M182.93,1465.47c-18.62,101.86,48.11,193.97,150.91,205.95,104.94,12.23,207.3-63.37,226.63-169.09,19.33-105.72-52.28-198.31-157.94-206.64-103.51-8.16-200.98,67.92-219.6,169.77Z"/>
            <path class="cls-5" d="M228,1469.87c-14.09,77.08,36.61,146.51,114.31,155.2,78.92,8.83,155.55-48.17,170.04-127.44,14.49-79.27-38.98-148.97-118.3-155.59-78.1-6.52-151.96,50.75-166.05,127.83Z"/>
            <path class="cls-17" d="M304.04,1477.3c-6.45,35.27,16.91,66.84,52.4,70.53,35.74,3.72,70.19-22.2,76.72-57.93,6.53-35.72-17.4-67.35-53.22-70.61-35.57-3.24-69.45,22.73-75.9,58.01Z"/>
            <path class="cls-14" d="M263.87,1619.7c45.86-52.61,14.43-103.46,58.15-154.23,55.63-64.59,146.11-28.25,184.57-87.23,4.84-7.42,8.98-16.57,11.43-27.97,35.79,38.44,53.21,93.21,42.46,152.06-19.33,105.72-121.68,181.32-226.63,169.09-33.63-3.92-63.39-16.42-87.58-35.02,6.24-4.92,12.15-10.46,17.6-16.71Z"/>
          </g>
          <g>
            <path class="cls-26" d="M1125.3,673.58l13.39-.88c18.87-.33,36.35-14.85,38.95-32.43l.93-6.27c2.61-17.58-10.67-31.42-29.56-30.91l-22.45,1.33c-18.56,.49-63.1,14.93-65.67,32.24l-.92,6.18c-2.57,17.31,46.79,31.08,65.32,30.75Z"/>
            <path class="cls-3" d="M870.29,1444.24l184.34-103.51c46.15-25.91,86.75-62.03,117.17-104.43,30.61-42.66,50.75-91.44,58.07-140.85l51.11-344.72c9.98-67.32-38.85-121.29-109.02-124.36-5.57-.24-10.41,3.83-11.23,9.35l-.63,4.28c-.93,6.29,3.67,11.99,10.01,12.52,53.36,4.45,89.82,46.49,82.12,98.43l-50.92,343.45c-13.58,91.62-73.87,175.79-159.83,224.37l-183.66,103.78,12.48,21.7Z"/>
            <path class="cls-9" d="M860.8,1455.36c4.68,.41,9.61-.56,14.11-3.08l184.59-103.41c47.64-26.69,89.57-63.93,121-107.66,31.63-44.02,52.42-94.36,59.99-145.36,1.88-12.67-7.78-23.32-21.53-23.79-13.7-.47-26.28,9.36-28.15,21.95-13.11,88.42-71.24,169.69-154.18,216.66l-183.41,103.87c-11.17,6.32-15.38,19.85-9.43,30.25,3.58,6.25,10.02,9.96,17.02,10.57Z"/>
            <path class="cls-3" d="M793.89,1437.67l18.24-18.93-140.55-124.92c-61.72-54.86-90.54-137.51-78.02-221.93l46.92-316.47c7.61-51.31,56.11-93.92,108.81-94.98l3.63-24.5c-66.3,1.56-127.13,55.24-136.69,119.67l-46.76,315.4c-6.7,45.21-2.65,90.96,11.78,132.48,14.51,41.76,39.6,79.48,72.76,109.13l139.87,125.07Z"/>
            <path class="cls-7" d="M799.75,1450.02c6.9,.6,14.19-1.89,19.46-7.35,8.81-9.11,8.66-22.98-.32-30.94l-140.8-124.86c-59.77-53.01-87.7-132.96-75.59-214.64,1.72-11.63-6.3-21.38-17.89-21.77-11.55-.39-22.28,8.66-23.99,20.22-6.9,46.54-2.74,93.64,12.09,136.4,14.92,43.01,40.72,81.88,74.84,112.45l139.62,125.13c3.56,3.19,7.99,4.97,12.58,5.37Z"/>
            <path class="cls-18" d="M785.24,678.55l-23.84,.8c-16.98,.3-28.69-12.89-26.23-29.46l.88-5.91c2.46-16.57,18.17-30.37,35.17-30.82l20.34-1.22c17.29-.46,54.73,12.79,52.24,29.61l-.89,6c-.78,25.72-40.4,30.69-57.67,31Z"/>
            <path class="cls-6" d="M828.39,1465.92c27.38,2.45,56.3-4.17,81.59-20.38l35.73-22.9c15.47-9.91,20.21-29.43,10.56-43.51-9.62-14.04-29.86-17.29-45.18-7.34l-35.39,22.99c-23.47,15.25-53.78,12.87-72.09-5.49l-27.79-27.87c-11.64-11.67-31.4-11.31-44.15,.73-12.71,12-13.7,31.15-2.2,42.84l27.44,27.9c19.12,19.44,44.56,30.62,71.48,33.02Z"/>
            <path class="cls-8" d="M815.3,1552.83c17.48,1.77,33.75-10.57,36.27-27.56l12.94-87.3c2.52-17-9.71-31.93-27.24-33.35-17.45-1.41-33.56,11.11-36.06,27.96l-12.83,86.55c-2.5,16.85,9.52,31.94,26.91,33.7Z"/>
            <path class="cls-24" d="M812.07,644.07c-1.95,9.52,1.97,18.35,8.74,19.73,6.77,1.38,13.84-5.21,15.78-14.72,1.95-9.52-1.97-18.35-8.74-19.73-6.77-1.38-13.84,5.21-15.78,14.72Z"/>
          </g>
        </g>
      </g>
    </g>
  </g>
</svg>