<?xml version="1.0" encoding="UTF-8"?>
<svg id="Layer_2" data-name="Layer 2" xmlns="http://www.w3.org/2000/svg" viewBox="0 0 208.11 340">
  <defs>
    <style>
      .cls-1, .cls-2, .cls-3, .cls-4, .cls-5, .cls-6, .cls-7, .cls-8, .cls-9 {
        fill-rule: evenodd;
      }

      .cls-1, .cls-10 {
        fill: #1b3c56;
      }

      .cls-2 {
        fill: #ce3350;
      }

      .cls-3 {
        fill: #eeeeef;
      }

      .cls-4 {
        fill: #dbdcdc;
      }

      .cls-5 {
        fill: #fff;
      }

      .cls-6 {
        fill: #db4e5e;
        opacity: .53;
      }

      .cls-11 {
        fill: #002136;
      }

      .cls-7 {
        fill: #c2304b;
      }

      .cls-8 {
        fill: #234865;
      }

      .cls-9 {
        fill: #f2f2f2;
      }
    </style>
  </defs>
  <g id="OBJECTS">
    <g>
      <path class="cls-7" d="M94.76,9.57c4.18,3.3,9.99,3.3,14.17,0C116.64,3.49,126.3,0,139.51,0c26.6,0,48.18,19.2,48.18,42.86,0,20.65-12.09,39.8-25.64,55.87-15.48,18.36-34.54,35.05-52.77,51.26h0c-4.24,3.77-10.64,3.77-14.88,0h0c-18.23-16.21-37.28-32.9-52.77-51.26-13.55-16.08-25.64-35.22-25.64-55.87C16,19.2,37.59,0,64.19,0c13.22,0,22.87,3.49,30.58,9.57Z"/>
      <path class="cls-2" d="M108.94,9.57c-4.18,3.3-9.99,3.3-14.17,0C87.06,3.49,77.4,0,64.19,0,37.59,0,16,19.2,16,42.86c0,20.23,11.61,39.02,24.82,54.89,12.89,.7,26.55-.67,40.3-4.37,49.33-13.29,82.54-51.99,78.72-89.38-6.18-2.56-13.06-4-20.32-4-13.22,0-22.87,3.49-30.58,9.57Z"/>
      <path class="cls-9" d="M12.29,48.42c-.79,.14-1.51,.23-2.2,.32-2.36,.3-3.98,.51-4.48,4.87-.36,3.17-.58,6.66-.6,10.4-.09,17.59,3.95,41.06,16.33,61.07,12.3,19.88,32.91,36.35,66.04,40.16,4.57,.53,9.34,.81,14.31,.84l-.02,5.01c-5.24-.03-10.19-.32-14.86-.86-34.93-4.02-56.71-21.46-69.74-42.52C4.13,106.8-.1,82.32,0,63.99c.02-4,.24-7.68,.62-10.95,.95-8.27,4.16-8.68,8.84-9.28,.62-.08,1.28-.16,1.94-.28l.88,4.93Z"/>
      <path class="cls-9" d="M191.1,48.42c.79,.14,1.51,.23,2.2,.32,2.36,.3,3.98,.51,4.48,4.87,.36,3.17,.58,6.66,.6,10.4,.09,17.59-3.95,41.06-16.33,61.07-12.3,19.88-32.91,36.35-66.04,40.16-4.57,.53-9.34,.81-14.31,.84l.02,5.01c5.24-.03,10.19-.32,14.86-.86,34.93-4.02,56.71-21.46,69.74-42.52,12.95-20.92,17.17-45.4,17.08-63.73-.02-4-.24-7.68-.62-10.95-.95-8.27-4.16-8.68-8.84-9.28-.62-.08-1.28-.16-1.94-.28l-.88,4.93Z"/>
      <rect class="cls-11" x="8.17" y="42.03" width="7.51" height="7.71" rx="2.57" ry="2.57" transform="translate(-5.4 1.75) rotate(-6.86)"/>
      <rect class="cls-11" x="187.6" y="42.13" width="7.71" height="7.51" rx="2.57" ry="2.57" transform="translate(123.02 230.49) rotate(-83.14)"/>
      <path class="cls-1" d="M22.34,124.47c14.76,23.85,37.59,36.44,65.18,39.61,9.51,1.09,18.84,1.09,28.35,0,27.6-3.18,50.42-15.76,65.18-39.61,1.93-3.12,5.1-9.65,6.43-12.43,.34-.72,1.2-1.01,1.92-.66l4.04,1.98c.71,.35,1,1.2,.66,1.9-1.37,2.85-4.73,9.74-6.79,13.08-15.98,25.83-40.69,39.62-70.6,43.06-4.99,.57-10.01,.87-15.03,.87s-10.01-.29-14.99-.87c-29.91-3.44-54.62-17.24-70.6-43.06-2.06-3.33-5.42-10.22-6.79-13.08-.34-.71-.04-1.56,.66-1.9l4.04-1.98c.71-.35,1.57-.05,1.92,.66,1.33,2.78,4.5,9.3,6.43,12.43Z"/>
      <path class="cls-5" d="M5.89,45.78c.42-.2,.91-.02,1.11,.39,.2,.42,.02,.91-.39,1.11-1.3,.63-2.16,3.13-2.7,6.22-.96,5.4-.89,12.42-.76,15.12,.26,5.5,.9,10.95,1.71,15.93,1.01,6.29,2.3,11.84,3.42,15.83,.12,.44-.13,.91-.58,1.03s-.91-.13-1.03-.58c-1.13-4.03-2.43-9.64-3.46-16.02-.81-5.04-1.46-10.55-1.73-16.12-.13-2.76-.21-9.95,.78-15.48,.64-3.57,1.75-6.53,3.63-7.44Z"/>
      <path class="cls-5" d="M197.5,45.78c-.42-.2-.91-.02-1.11,.39-.2,.42-.02,.91,.39,1.11,1.3,.63,2.16,3.13,2.7,6.22,.96,5.4,.89,12.42,.76,15.12-.26,5.5-.9,10.95-1.71,15.93-1.01,6.29-2.3,11.84-3.42,15.83-.12,.44,.13,.91,.58,1.03,.44,.12,.91-.13,1.03-.58,1.13-4.03,2.43-9.64,3.46-16.02,.81-5.04,1.46-10.55,1.73-16.12,.13-2.76,.21-9.95-.78-15.48-.64-3.57-1.75-6.53-3.63-7.44Z"/>
      <path class="cls-1" d="M189.51,187.5c4.69,7.82,8.27,16.2,10.68,24.91,2.42,8.74,3.66,17.77,3.66,26.86,0,55.63-45.1,100.73-100.73,100.73S2.38,294.9,2.38,239.27c0-74.65,98.51-43.84,99.3-69.01l7.69-.23c.45,35.25-98.96,2.21-98.61,69.23,0,51,41.35,92.35,92.35,92.35s92.35-41.35,92.35-92.35c0-8.39-1.13-16.67-3.33-24.63-2.21-7.99-5.49-15.68-9.79-22.85l7.17-4.29Z"/>
      <circle class="cls-10" cx="185.93" cy="189.64" r="22.19" transform="translate(-79.64 187.01) rotate(-45)"/>
      <path class="cls-3" d="M185.93,209.45c10.91,0,19.81-8.9,19.81-19.81s-8.9-19.81-19.81-19.81-19.81,8.9-19.81,19.81,8.9,19.81,19.81,19.81Z"/>
      <path class="cls-4" d="M184.72,190.36l8.76-19.04c-2.33-.96-4.88-1.49-7.56-1.49-10.94,0-19.81,8.87-19.81,19.81,0,7.7,4.4,14.38,10.81,17.65l6.84-14.86,.95-2.08Z"/>
      <path class="cls-8" d="M14.33,117.74c.81-.42,1.8-.09,2.23,.71,8.14,15.31,19.17,27.52,33.48,35.85,13.94,8.11,31.03,12.56,51.64,12.61,20.62-.06,37.71-4.5,51.64-12.61,14.32-8.33,25.34-20.55,33.48-35.85,.43-.81,1.42-1.13,2.23-.71h0c.83,.42,1.16,1.45,.72,2.27-8.44,15.86-19.88,28.53-34.76,37.19-14.43,8.4-32.08,13-53.32,13.06-21.25-.06-38.89-4.66-53.32-13.06-14.88-8.66-26.32-21.33-34.76-37.19-.44-.82-.11-1.85,.72-2.27h0Z"/>
      <path class="cls-5" d="M200.07,184.64c-.17-.89,.41-1.75,1.3-1.92,.89-.17,1.75,.41,1.92,1.3,.12,.64,.22,1.31,.28,2.01,.07,.71,.1,1.39,.1,2.02,0,3.88-1.05,7.61-2.95,10.85-1.9,3.24-4.65,5.98-8.04,7.87-.79,.44-1.79,.15-2.23-.64-.44-.79-.16-1.79,.64-2.23,2.87-1.61,5.2-3.92,6.81-6.67,1.6-2.73,2.49-5.9,2.49-9.2,0-.61-.03-1.18-.08-1.71-.05-.55-.13-1.12-.24-1.7Z"/>
      <path class="cls-6" d="M32.06,18.76c-10.51,11.84-10,31.54,0,42.81s35-4.51,37-18.02,23-14.64,20-27.04c-3-12.39-36-21.4-57,2.25Z"/>
      <path class="cls-6" d="M176.48,23.28c5.02,9.28,1.69,21.99-6.52,27.77-8.2,5.79-22.02-8.25-21.26-17.33,.76-9.08-12.69-13-8.86-20.59,3.83-7.58,26.61-8.41,36.64,10.14Z"/>
    </g>
  </g>
</svg>